<svg height="256" viewBox="0 0 256 256" width="256" xmlns="http://www.w3.org/2000/svg"><path d="m41.628867 28.161433-13.0045 21.642134h-2.356l2.329133-14.1019-7.2137.0093s-.0682.0021-.100233.0021c-.649967 0-1.175934-.525966-1.175934-1.175933 0-.279.259367-.751233.259367-.751233l12.962133-21.6163 2.395267.01033-2.388033 14.1236 7.2509-.0093s.0775-.001.1147-.001c.649966 0 1.175933.525966 1.175933 1.175933 0 .2635-.103333.494967-.250067.6913l.001.001zm-10.628867-28.161433c-17.1213 0-31 13.879733-31 31 0 17.1213 13.8787 31 31 31 17.120267 0 31-13.8787 31-31 0-17.120267-13.879733-31-31-31z" fill="#0379c4" fill-rule="evenodd" transform="scale(4.1290323)"/></svg>